<?xml version="1.0" encoding="UTF-8"?>
<svg version="1.1" xmlns="http://www.w3.org/2000/svg" width="96" height="96">
<path d="M0 0 C23.76 0 47.52 0 72 0 C71.8125 30.8125 71.8125 30.8125 71.66723633 40.47583008 C71.6761646 43.03208263 71.68916155 45.58832557 71.70703125 48.14453125 C71.65500549 50.1005426 71.65500549 50.1005426 71.60192871 52.09606934 C71.7013488 58.79141097 72.30924861 62.93476428 77.02546978 67.69662762 C78.5179068 69.05856346 80.07782508 70.34541804 81.63920593 71.62773132 C84 74 84 74 84.47541809 76.62947083 C83.74216951 80.28559412 81.88561307 81.75563428 79 84 C76.62947083 84.47541809 76.62947083 84.47541809 74 84 C71.62773132 81.63920593 71.62773132 81.63920593 69.1159668 78.58081055 C65.06359219 74.14013595 62.17275983 72.20495024 55.96801758 71.65942383 C53.36042799 71.62070335 50.75148633 71.63769177 48.14453125 71.70703125 C46.91714233 71.69845093 45.68975342 71.68987061 44.4251709 71.68103027 C39.88743 71.66518121 35.34975596 71.74429386 30.8125 71.8125 C15.5603125 71.9053125 15.5603125 71.9053125 0 72 C0 48.24 0 24.48 0 0 Z " fill="#90C9F8" transform="translate(12,12)"/>
<path d="M0 0 C1.39809472 0.25890643 2.79342142 0.53277461 4.1875 0.8125 C4.96480469 0.96332031 5.74210937 1.11414062 6.54296875 1.26953125 C12.00866036 2.89446659 15.41489331 6.21138005 19.3125 10.25 C22.56585253 13.58246141 25.84430632 16.83337774 29.375 19.875 C30.00148438 20.41640625 30.62796875 20.9578125 31.2734375 21.515625 C31.84320313 22.00546875 32.41296875 22.4953125 33 23 C37.8 27.2 37.8 27.2 38.625 30.5 C37.70636372 34.17454513 35.95241764 35.70367517 33 38 C30.66015625 38.44921875 30.66015625 38.44921875 28 38 C25.3515625 35.875 25.3515625 35.875 22.625 33 C22.14385742 32.49887695 21.66271484 31.99775391 21.16699219 31.48144531 C17.87551519 28.02660863 14.70233946 24.47116191 11.625 20.82421875 C9.93696904 18.92924168 8.12558993 17.27006834 6.25 15.5625 C2.54583031 11.94157008 1.02365359 8.03052621 0 3 C0 2.01 0 1.02 0 0 Z " fill="#FE9800" transform="translate(58,58)"/>
<path d="M0 0 C14.52 0 29.04 0 44 0 C44 1.32 44 2.64 44 4 C29.48 4 14.96 4 0 4 C0 2.68 0 1.36 0 0 Z " fill="#1976D2" transform="translate(26,50)"/>
<path d="M0 0 C14.52 0 29.04 0 44 0 C44 1.32 44 2.64 44 4 C29.48 4 14.96 4 0 4 C0 2.68 0 1.36 0 0 Z " fill="#1976D2" transform="translate(26,34)"/>
<path d="M0 0 C1.14626322 0.97866338 2.29199788 1.95794587 3.4375 2.9375 C4.39462891 3.75541016 4.39462891 3.75541016 5.37109375 4.58984375 C7.973844 6.84306399 7.973844 6.84306399 8.375 9.25 C7.83336072 13.22202142 6.10701505 14.58343274 3 17 C0.625 17.75 0.625 17.75 -2 17 C-4.54795108 14.85099742 -6.79258877 12.49367493 -9 10 C-8.06409496 8.8944811 -7.12620142 7.79064547 -6.1875 6.6875 C-5.66542969 6.07261719 -5.14335938 5.45773438 -4.60546875 4.82421875 C-3.12827531 3.14575321 -1.59960869 1.56117966 0 0 Z " fill="#E56C6D" transform="translate(88,79)"/>
<path d="M0 0 C13.2 0 26.4 0 40 0 C40 1.32 40 2.64 40 4 C26.8 4 13.6 4 0 4 C0 2.68 0 1.36 0 0 Z " fill="#1976D2" transform="translate(26,26)"/>
<path d="M0 0 C11.88 0 23.76 0 36 0 C36 1.32 36 2.64 36 4 C24.12 4 12.24 4 0 4 C0 2.68 0 1.36 0 0 Z " fill="#1976D2" transform="translate(26,42)"/>
<path d="M0 0 C9.24 0 18.48 0 28 0 C28.33 1.32 28.66 2.64 29 4 C19.43 4 9.86 4 0 4 C0 2.68 0 1.36 0 0 Z " fill="#1976D2" transform="translate(26,58)"/>
<path d="M0 0 C1.65 1.65 3.3 3.3 5 5 C2.03 7.97 -0.94 10.94 -4 14 C-5.65 12.35 -7.3 10.7 -9 9 C-6.03 6.03 -3.06 3.06 0 0 Z " fill="#B2BCBE" transform="translate(88,79)"/>
<path d="M0 0 C1.4391134 0.28359887 2.87625518 0.57721399 4.3125 0.875 C5.11300781 1.03742187 5.91351563 1.19984375 6.73828125 1.3671875 C9 2 9 2 12 4 C9.36 6.64 6.72 9.28 4 12 C2.09681116 9.14521674 1.5380901 7.58058692 0.875 4.3125 C0.70742188 3.50425781 0.53984375 2.69601563 0.3671875 1.86328125 C0.24601562 1.24839844 0.12484375 0.63351563 0 0 Z " fill="#F8BC11" transform="translate(58,58)"/>
<path d="M0 0 C2.97 0.495 2.97 0.495 6 1 C4.35 2.65 2.7 4.3 1 6 C0.67 4.02 0.34 2.04 0 0 Z " fill="#576052" transform="translate(58,58)"/>
</svg>
